<?xml version="1.0" encoding="UTF-8" standalone="no"?>
<!DOCTYPE svg PUBLIC "-//W3C//DTD SVG 1.1//EN" "http://www.w3.org/Graphics/SVG/1.1/DTD/svg11.dtd">
<svg version="1.1" xmlns="http://www.w3.org/2000/svg" xmlns:xlink="http://www.w3.org/1999/xlink" preserveAspectRatio="xMidYMid meet" viewBox="122.1870229007634 129.63740458015278 400.2061068702292 411.6564885496184" width="398.1" height="410"><defs><path d="M130.69 138.14L513.89 138.14L513.89 532.79L130.69 532.79L130.69 138.14Z" id="d1VQx2JhcY"></path><path d="M378.02 258.17C378.02 286.18 354.76 308.93 326.11 308.93C297.46 308.93 274.2 286.18 274.2 258.17C274.2 230.15 297.46 207.4 326.11 207.4C354.76 207.4 378.02 230.15 378.02 258.17Z" id="bs1IAGkXf"></path><path d="M382.74 335.47L267.47 335.47L326.25 262.18L382.74 335.47Z" id="b4tRIMtAZ3"></path><path d="M482.6 481.83L401.68 481.83C412.62 475.22 418.98 468.35 420.76 461.22C422.54 454.1 420.51 446.72 414.66 439.08L326.87 308.55L229.92 439.08C223.94 446.72 221.91 454.1 223.82 461.22C225.73 468.35 231.58 475.22 241.37 481.83L161.98 481.83L326.87 270.38L482.6 481.83Z" id="b8WZyLOUb"></path></defs><g><g><use xlink:href="#d1VQx2JhcY" opacity="1" fill="#ffffff" fill-opacity="1"></use></g><g><g><use xlink:href="#bs1IAGkXf" opacity="1" fill-opacity="0" stroke="#b96693" stroke-width="17" stroke-opacity="1"></use></g></g><g><use xlink:href="#b4tRIMtAZ3" opacity="1" fill="#ffffff" fill-opacity="1"></use></g><g><use xlink:href="#b8WZyLOUb" opacity="1" fill="#97d5a4" fill-opacity="1"></use><g><use xlink:href="#b8WZyLOUb" opacity="1" fill-opacity="0" stroke="#97d5a4" stroke-width="1" stroke-opacity="1"></use></g></g></g></svg>